<svg xmlns="http://www.w3.org/2000/svg" viewBox="0 0 128 128">
  <defs>
    <linearGradient id="grad" x1="0%" y1="0%" x2="100%" y2="100%">
      <stop offset="0%" style="stop-color:#a855f7"/>
      <stop offset="100%" style="stop-color:#7c3aed"/>
    </linearGradient>
  </defs>
  <rect width="128" height="128" rx="24" fill="url(#grad)"/>
  <g fill="white">
    <!-- Paintbrush icon -->
    <path d="M96 24c-8 0-16 8-24 20-6 10-14 22-20 28-4 4-8 10-8 18 0 12 10 22 22 22 8 0 14-4 18-8 6-6 18-14 28-20 12-8 20-16 20-24 0-8-4-12-12-16-6-4-14-20-24-20zm-30 72c-6 0-10-4-10-10s4-10 10-10 10 4 10 10-4 10-10 10z"/>
  </g>
</svg>
